<?xml version="1.0" encoding="utf-8"?>
<!-- Generator: Adobe Illustrator 28.3.0, SVG Export Plug-In . SVG Version: 6.00 Build 0)  -->
<svg version="1.1" xmlns="http://www.w3.org/2000/svg" xmlns:xlink="http://www.w3.org/1999/xlink" x="0px" y="0px"
	 viewBox="0 0 661.3 176.82" style="enable-background:new 0 0 661.3 176.82;" xml:space="preserve">
<style type="text/css">
	.st0{fill:#02B2C8;}
	.st1{fill:#FFFFFF;}
</style>
<g id="Layer_1">
	<path class="st0" d="M380.09,0c-12.27,24.87-19.19,52.84-19.19,82.45c0,34.44,9.37,66.68,25.64,94.37h249.13
		c16.27-27.69,25.64-59.93,25.64-94.37c0-29.6-6.92-57.58-19.19-82.45H380.09z"/>
	<g>
		<path class="st0" d="M9.9,127.94v9.3c0,19.68,7.39,29.91,21.47,29.91c14.33,0,21.45-8.02,21.45-34.73
			c0-21.82-4.87-31.77-22.66-45.44C11.86,72.81,3.08,64.79,3.08,39.54c0-20.9,6.2-39.8,29.05-39.54
			c19.34,0.25,28.01,11.58,28.01,36.68v6.75h-9.89v-6.48c0-16.64-3.57-27.88-18.38-27.88c-15.05,0-18.88,13.27-18.88,28.88
			c0,19.92,4.08,26.1,20.54,38.94c21.98,17.04,29.21,26.1,29.21,54.45c0,23.96-5.23,44.88-31.12,44.88
			C7.98,176.21,0,160.15,0,137.48v-9.54H9.9z"/>
		<path class="st0" d="M138.17,135.63v1.8c0,21.19-5.42,38.76-28.02,38.76c-20.32,0-27.25-14.81-27.25-40.35V79.67
			c0-22.65,8.98-36.48,28.28-36.48c20.87,0,26.98,15.63,26.98,34.13v5.65h-10.14v-3.4c0-13.58-2.3-27.33-17.1-27.33
			c-12.52,0-17.87,9.2-17.87,29.1v54.68c0,14.56,2.81,31.12,17.36,31.12c12.28,0,17.61-7.2,17.61-29.61v-1.9H138.17z"/>
		<path class="st0" d="M165.42,110.1v23.36c0,15.85,2.82,33.69,18.67,33.69c14.34,0,17.64-10.79,17.64-26.37v-1.53h9.88v1.27
			c0,16.43-4.1,35.67-28.02,35.67c-20.64,0-28.06-14.82-28.06-41.11V80.98c0-21.56,8.19-37.78,28.81-37.78
			c22.04,0,27.53,18.31,27.53,38.03c0,6.47,0,21.66,0,28.88H165.42z M202,101.08v-19.2c0-12.11-1.07-29.64-17.91-29.64
			c-16.31,0-18.67,14.49-18.67,29.89v18.94H202z"/>
		<path class="st0" d="M232.8,83.94c0-25.53,0-31.76-0.26-38.69h9.37c0.26,2.84,0.52,6.73,0.52,14.12
			c3.86-11.51,12.33-16.18,23.46-16.18c12.45,0,24.28,6.51,24.28,29.49v101.46h-9.9V74.8c0-13.36-4.37-22.02-16.12-22.02
			c-12.55,0-21.46,5.91-21.46,37.55v83.82h-9.9V83.94z"/>
		<path class="st0" d="M302.14,45.25h15.93V12.81h9.65v32.45h20.27v9.07h-20.27v97.47c0,7.19,1.53,15.11,10.02,15.11
			c2.57,0,6.93-0.26,9.23-0.77v8.25c-3.37,1.06-8.31,1.32-12.2,1.32c-8.68,0-16.7-5.16-16.7-22.04V54.33h-15.93V45.25z"/>
	</g>
	<g>
		<path class="st1" d="M427.76,109.42v5.8c0,9.42,3.25,14.46,10.27,14.46c7.16,0,9.99-5.19,9.99-16.15
			c0-11.71-2.57-16.26-13.11-24.47c-10.7-8.37-16.13-13.42-16.13-28.17c0-12.67,3.8-24.83,19.5-24.75
			c14.89,0.08,18.83,9.99,18.83,22.69v4.64h-10.58v-4.36c0-8.31-1.62-13.67-8.47-13.67c-6.86,0-8.63,6.02-8.63,13.86
			c0,9.3,1.85,12.83,11.03,19.77c13.89,10.5,18.28,16.35,18.28,32.96c0,14.06-4.02,26.87-20.9,26.87
			c-16.15,0-20.72-10.58-20.72-23.76v-5.75H427.76z"/>
		<path class="st1" d="M480.29,33.12v35.08c1.98-4.41,6.4-8.06,13.95-8.06c11.41,0,14.83,8.58,14.83,19.58v57.86h-10.65V82.42
			c0-6.36-0.87-12.52-8.07-12.52c-8.17,0-10.06,6.24-10.06,17.33v50.36h-10.64V33.12H480.29z"/>
		<path class="st1" d="M557.62,124.4c0,5.2,0.08,10.95,0.3,13.19h-9.88c-0.38-1.84-0.74-4.9-0.8-6.19
			c-2.45,5.64-7.15,7.39-12.47,7.39c-11.01,0-15.4-9.78-15.4-21.54v-1.35c0-17.25,10.7-23.35,24.29-23.35c1.04,0,1.96,0,3.31,0
			V80.49c0-6.9-1.17-11.27-7.15-11.27c-5.91,0-7.54,4.52-7.54,10.48v2.03h-10.51v-1.89c0-10.65,4.18-19.69,18.4-19.69
			c13.3,0,17.45,8.32,17.45,19.56V124.4z M547.18,101.05c-0.93,0-2.76,0-3.72,0c-8.63,0-13.78,3.62-13.78,14.62v1.28
			c0,6.81,2.11,12.3,8.07,12.3c7.01,0,9.42-5.61,9.42-17.02V101.05z"/>
		<path class="st1" d="M582.35,97h0.22c3.7-8.44,12.21-26.06,16.71-35.66h11.22L596.1,89.27l16.15,48.32h-11.65l-11.76-37.96
			l-6.48,12.31v25.65h-10.58V33.12h10.58V97z"/>
	</g>
</g>
<g id="Layer_2">
</g>
</svg>
